<?xml version="1.0" encoding="utf-8"?>
<!-- Generator: Adobe Illustrator 17.0.0, SVG Export Plug-In . SVG Version: 6.00 Build 0)  -->
<!DOCTYPE svg PUBLIC "-//W3C//DTD SVG 1.1//EN" "http://www.w3.org/Graphics/SVG/1.1/DTD/svg11.dtd">
<svg version="1.1" id="Capa_1" xmlns="http://www.w3.org/2000/svg" xmlns:xlink="http://www.w3.org/1999/xlink" x="0px" y="0px"
	 width="64px" height="64px" viewBox="0 0 64 64" enable-background="new 0 0 64 64" xml:space="preserve">
<g>
	<path d="M54.447,32.894c-0.247-0.494-0.247-1.295,0-1.789l3.106-6.211C57.8,24.4,57.552,24,57,24h-8.237
		c-2.917-6.538-9.467-11.113-17.076-11.113c-7.61,0-14.16,4.575-17.077,11.113H7c-0.552,0-0.8,0.4-0.553,0.895l3.106,6.211
		C9.8,31.6,9.8,32.4,9.553,32.895l-3.106,6.211C6.2,39.6,6.448,40,7,40h8.008c3.086,6.094,9.395,10.29,16.679,10.29
		c7.284,0,13.594-4.196,16.68-10.29H57c0.552,0,0.8-0.4,0.553-0.895L54.447,32.894z M31.687,49.214
		c-6.688,0-12.505-3.725-15.492-9.214c-1.36-2.5-2.133-5.365-2.133-8.411c0-2.721,0.635-5.288,1.736-7.589
		c2.838-5.93,8.876-10.036,15.889-10.036S44.738,18.07,47.576,24c1.101,2.301,1.736,4.868,1.736,7.589
		c0,3.046-0.773,5.911-2.133,8.411C44.193,45.489,38.375,49.214,31.687,49.214z"/>
	<path d="M31.688,16.789c-5.396,0-10.103,2.897-12.689,7.211c-1.331,2.221-2.111,4.811-2.111,7.589c0,3.126,0.975,6.022,2.629,8.411
		c2.671,3.858,7.123,6.389,12.171,6.389S41.187,43.858,43.859,40c1.654-2.389,2.629-5.285,2.629-8.411
		c0-2.778-0.779-5.368-2.111-7.589C41.791,19.686,37.084,16.789,31.688,16.789z M37.616,40.063c0.171,0.525-0.053,0.688-0.5,0.363
		L36.53,40l-4.178-3.035c-0.447-0.325-1.171-0.325-1.618,0L26.556,40l-0.586,0.426c-0.447,0.325-0.671,0.162-0.5-0.363L25.49,40
		l1.799-5.537c0.171-0.525-0.053-1.214-0.5-1.539l-4.764-3.461c-0.447-0.325-0.361-0.588,0.191-0.588h5.888
		c0.552,0,1.138-0.426,1.309-0.951L30.689,24l0.544-1.676c0.173-0.525,0.449-0.525,0.62,0L32.397,24l1.275,3.924
		c0.171,0.525,0.757,0.951,1.309,0.951h5.888c0.552,0,0.638,0.263,0.191,0.588l-4.764,3.461c-0.447,0.325-0.671,1.014-0.5,1.539
		l1.8,5.537L37.616,40.063z"/>
</g>
</svg>
